<?xml version="1.0" encoding="UTF-8" standalone="no"?>
<!DOCTYPE svg PUBLIC "-//W3C//DTD SVG 1.1//EN" "http://www.w3.org/Graphics/SVG/1.1/DTD/svg11.dtd">
<svg width="100%" height="100%" viewBox="0 0 192 37" version="1.1" xmlns="http://www.w3.org/2000/svg" xmlns:xlink="http://www.w3.org/1999/xlink" xml:space="preserve" xmlns:serif="http://www.serif.com/" style="fill-rule:evenodd;clip-rule:evenodd;stroke-linejoin:round;stroke-miterlimit:2;">
    <g transform="matrix(1,0,0,1,-188.481,-141.63)">
        <g id="imagem-logo" transform="matrix(0.216303,0,0,0.216303,59.8759,86.9229)">
            <g id="Logo" transform="matrix(1,0,0,1,0,217.184)">
                <g transform="matrix(0.442612,0,0,0.442612,362.503,-98.5991)">
                    <g transform="matrix(1.22468,0,0,1.19876,-173.776,-59.7234)">
                        <path d="M886,372.409C886,334.101 855.557,303 818.06,303L637.94,303C600.443,303 570,334.101 570,372.409L570,555.591C570,593.899 600.443,625 637.94,625L818.06,625C855.557,625 886,593.899 886,555.591L886,372.409Z" style="fill:rgb(47,56,87);"/>
                    </g>
                    <g transform="matrix(1,0,0,1,-45.0419,0)">
                        <path d="M698.983,605.971C698.988,605.993 698.994,606.002 699,606C699.007,605.997 699.001,605.987 698.983,605.971C698.617,604.559 699,553 699,553L829,553L829,603L875,578L875,452L765,387L654,452L654,579C654,579 697.909,604.959 698.983,605.971ZM764.5,441L828,477L828,508L701,508L701,476L764.5,441Z" style="fill:white;"/>
                    </g>
                </g>
                <g transform="matrix(1.17925,0,0,1.17925,408.206,-552.651)">
                    <g transform="matrix(78.2123,0,0,78.2123,341.059,607)">
                        <path d="M0.696,-0L0.524,-0L0.474,-0.156L0.225,-0.156L0.176,-0L0.005,-0L0.26,-0.7L0.447,-0.7L0.696,-0ZM0.438,-0.277L0.363,-0.512C0.357,-0.53 0.353,-0.551 0.351,-0.575L0.347,-0.575C0.346,-0.555 0.341,-0.534 0.335,-0.514L0.259,-0.277L0.438,-0.277ZM0.506,-0.923L0.353,-0.765L0.242,-0.765L0.369,-0.923L0.506,-0.923Z" style="fill:rgb(47,56,87);fill-rule:nonzero;"/>
                    </g>
                    <g transform="matrix(78.2123,0,0,78.2123,396.052,607)">
                        <path d="M0.655,-0.047C0.586,-0.007 0.501,0.012 0.4,0.012C0.287,0.012 0.198,-0.019 0.134,-0.081C0.069,-0.144 0.036,-0.229 0.036,-0.339C0.036,-0.449 0.072,-0.539 0.143,-0.608C0.214,-0.677 0.308,-0.712 0.426,-0.712C0.5,-0.712 0.565,-0.702 0.622,-0.681L0.622,-0.533C0.568,-0.564 0.502,-0.58 0.424,-0.58C0.358,-0.58 0.305,-0.559 0.264,-0.516C0.223,-0.474 0.202,-0.417 0.202,-0.346C0.202,-0.274 0.221,-0.219 0.258,-0.179C0.295,-0.14 0.344,-0.12 0.407,-0.12C0.445,-0.12 0.475,-0.125 0.497,-0.136L0.497,-0.273L0.357,-0.273L0.357,-0.399L0.655,-0.399L0.655,-0.047Z" style="fill:rgb(47,56,87);fill-rule:nonzero;"/>
                    </g>
                    <g transform="matrix(78.2123,0,0,78.2123,451.656,607)">
                        <rect x="0.08" y="-0.7" width="0.158" height="0.7" style="fill:rgb(47,56,87);fill-rule:nonzero;"/>
                    </g>
                    <g transform="matrix(78.2123,0,0,78.2123,476.441,607)">
                        <path d="M0.497,-0L0.08,-0L0.08,-0.7L0.238,-0.7L0.238,-0.128L0.497,-0.128L0.497,-0Z" style="fill:rgb(47,56,87);fill-rule:nonzero;"/>
                    </g>
                    <g transform="matrix(78.2123,0,0,78.2123,538.003,607)">
                        <path d="M0.048,-0.027L0.048,-0.183C0.076,-0.159 0.107,-0.142 0.14,-0.13C0.173,-0.118 0.207,-0.112 0.241,-0.112C0.261,-0.112 0.278,-0.114 0.293,-0.117C0.308,-0.121 0.32,-0.126 0.33,-0.132C0.34,-0.138 0.347,-0.146 0.352,-0.155C0.357,-0.163 0.359,-0.173 0.359,-0.183C0.359,-0.196 0.355,-0.208 0.348,-0.219C0.34,-0.23 0.329,-0.24 0.316,-0.249C0.302,-0.258 0.286,-0.267 0.268,-0.275C0.249,-0.284 0.229,-0.292 0.208,-0.301C0.153,-0.324 0.112,-0.352 0.085,-0.385C0.058,-0.418 0.045,-0.457 0.045,-0.504C0.045,-0.54 0.052,-0.572 0.067,-0.598C0.082,-0.624 0.101,-0.646 0.127,-0.663C0.152,-0.68 0.181,-0.692 0.214,-0.7C0.248,-0.708 0.283,-0.712 0.32,-0.712C0.356,-0.712 0.389,-0.71 0.417,-0.705C0.445,-0.701 0.471,-0.694 0.495,-0.685L0.495,-0.539C0.483,-0.547 0.47,-0.554 0.456,-0.561C0.442,-0.567 0.428,-0.572 0.414,-0.576C0.399,-0.58 0.384,-0.583 0.37,-0.585C0.355,-0.587 0.342,-0.588 0.329,-0.588C0.311,-0.588 0.294,-0.586 0.28,-0.583C0.265,-0.579 0.253,-0.575 0.243,-0.568C0.233,-0.562 0.225,-0.555 0.219,-0.546C0.214,-0.538 0.211,-0.528 0.211,-0.517C0.211,-0.505 0.214,-0.495 0.22,-0.486C0.226,-0.476 0.235,-0.468 0.247,-0.459C0.258,-0.451 0.272,-0.443 0.288,-0.435C0.304,-0.427 0.323,-0.419 0.343,-0.41C0.371,-0.398 0.396,-0.386 0.419,-0.373C0.441,-0.36 0.46,-0.345 0.476,-0.328C0.492,-0.312 0.504,-0.293 0.513,-0.271C0.521,-0.25 0.525,-0.225 0.525,-0.197C0.525,-0.158 0.518,-0.125 0.503,-0.098C0.488,-0.072 0.468,-0.05 0.443,-0.034C0.417,-0.017 0.388,-0.006 0.354,0.001C0.321,0.009 0.285,0.012 0.248,0.012C0.209,0.012 0.173,0.009 0.138,0.002C0.103,-0.004 0.073,-0.014 0.048,-0.027Z" style="fill:rgb(47,56,87);fill-rule:nonzero;"/>
                    </g>
                    <g transform="matrix(78.2123,0,0,78.2123,581.844,607)">
                        <rect x="0.08" y="-0.7" width="0.158" height="0.7" style="fill:rgb(47,56,87);fill-rule:nonzero;"/>
                    </g>
                    <g transform="matrix(78.2123,0,0,78.2123,606.629,607)">
                        <path d="M0.048,-0.027L0.048,-0.183C0.076,-0.159 0.107,-0.142 0.14,-0.13C0.173,-0.118 0.207,-0.112 0.241,-0.112C0.261,-0.112 0.278,-0.114 0.293,-0.117C0.308,-0.121 0.32,-0.126 0.33,-0.132C0.34,-0.138 0.347,-0.146 0.352,-0.155C0.357,-0.163 0.359,-0.173 0.359,-0.183C0.359,-0.196 0.355,-0.208 0.348,-0.219C0.34,-0.23 0.329,-0.24 0.316,-0.249C0.302,-0.258 0.286,-0.267 0.268,-0.275C0.249,-0.284 0.229,-0.292 0.208,-0.301C0.153,-0.324 0.112,-0.352 0.085,-0.385C0.058,-0.418 0.045,-0.457 0.045,-0.504C0.045,-0.54 0.052,-0.572 0.067,-0.598C0.082,-0.624 0.101,-0.646 0.127,-0.663C0.152,-0.68 0.181,-0.692 0.214,-0.7C0.248,-0.708 0.283,-0.712 0.32,-0.712C0.356,-0.712 0.389,-0.71 0.417,-0.705C0.445,-0.701 0.471,-0.694 0.495,-0.685L0.495,-0.539C0.483,-0.547 0.47,-0.554 0.456,-0.561C0.442,-0.567 0.428,-0.572 0.414,-0.576C0.399,-0.58 0.384,-0.583 0.37,-0.585C0.355,-0.587 0.342,-0.588 0.329,-0.588C0.311,-0.588 0.294,-0.586 0.28,-0.583C0.265,-0.579 0.253,-0.575 0.243,-0.568C0.233,-0.562 0.225,-0.555 0.219,-0.546C0.214,-0.538 0.211,-0.528 0.211,-0.517C0.211,-0.505 0.214,-0.495 0.22,-0.486C0.226,-0.476 0.235,-0.468 0.247,-0.459C0.258,-0.451 0.272,-0.443 0.288,-0.435C0.304,-0.427 0.323,-0.419 0.343,-0.41C0.371,-0.398 0.396,-0.386 0.419,-0.373C0.441,-0.36 0.46,-0.345 0.476,-0.328C0.492,-0.312 0.504,-0.293 0.513,-0.271C0.521,-0.25 0.525,-0.225 0.525,-0.197C0.525,-0.158 0.518,-0.125 0.503,-0.098C0.488,-0.072 0.468,-0.05 0.443,-0.034C0.417,-0.017 0.388,-0.006 0.354,0.001C0.321,0.009 0.285,0.012 0.248,0.012C0.209,0.012 0.173,0.009 0.138,0.002C0.103,-0.004 0.073,-0.014 0.048,-0.027Z" style="fill:rgb(47,56,87);fill-rule:nonzero;"/>
                    </g>
                    <g transform="matrix(78.2123,0,0,78.2123,650.471,607)">
                        <path d="M0.572,-0.572L0.372,-0.572L0.372,-0L0.214,-0L0.214,-0.572L0.015,-0.572L0.015,-0.7L0.572,-0.7L0.572,-0.572Z" style="fill:rgb(47,56,87);fill-rule:nonzero;"/>
                    </g>
                    <g transform="matrix(78.2123,0,0,78.2123,696.299,607)">
                        <path d="M0.5,-0L0.08,-0L0.08,-0.7L0.484,-0.7L0.484,-0.572L0.238,-0.572L0.238,-0.416L0.467,-0.416L0.467,-0.288L0.238,-0.288L0.238,-0.128L0.5,-0.128L0.5,-0Z" style="fill:rgb(47,56,87);fill-rule:nonzero;"/>
                    </g>
                    <g transform="matrix(78.2123,0,0,78.2123,737.925,607)">
                        <path d="M0.878,-0L0.722,-0L0.722,-0.419C0.722,-0.464 0.724,-0.514 0.728,-0.569L0.724,-0.569C0.716,-0.526 0.709,-0.495 0.702,-0.476L0.538,-0L0.409,-0L0.242,-0.471C0.238,-0.484 0.23,-0.516 0.22,-0.569L0.216,-0.569C0.22,-0.5 0.222,-0.439 0.222,-0.387L0.222,-0L0.08,-0L0.08,-0.7L0.311,-0.7L0.454,-0.285C0.465,-0.252 0.474,-0.219 0.479,-0.185L0.482,-0.185C0.491,-0.224 0.5,-0.257 0.51,-0.286L0.653,-0.7L0.878,-0.7L0.878,-0Z" style="fill:rgb(47,56,87);fill-rule:nonzero;"/>
                    </g>
                    <g transform="matrix(78.2123,0,0,78.2123,812.777,607)">
                        <path d="M0.696,-0L0.524,-0L0.474,-0.156L0.225,-0.156L0.176,-0L0.005,-0L0.26,-0.7L0.447,-0.7L0.696,-0ZM0.438,-0.277L0.363,-0.512C0.357,-0.53 0.353,-0.551 0.351,-0.575L0.347,-0.575C0.346,-0.555 0.341,-0.534 0.335,-0.514L0.259,-0.277L0.438,-0.277Z" style="fill:rgb(47,56,87);fill-rule:nonzero;"/>
                    </g>
                    <g transform="matrix(78.2123,0,0,78.2123,867.77,607)">
                        <path d="M0.048,-0.027L0.048,-0.183C0.076,-0.159 0.107,-0.142 0.14,-0.13C0.173,-0.118 0.207,-0.112 0.241,-0.112C0.261,-0.112 0.278,-0.114 0.293,-0.117C0.308,-0.121 0.32,-0.126 0.33,-0.132C0.34,-0.138 0.347,-0.146 0.352,-0.155C0.357,-0.163 0.359,-0.173 0.359,-0.183C0.359,-0.196 0.355,-0.208 0.348,-0.219C0.34,-0.23 0.329,-0.24 0.316,-0.249C0.302,-0.258 0.286,-0.267 0.268,-0.275C0.249,-0.284 0.229,-0.292 0.208,-0.301C0.153,-0.324 0.112,-0.352 0.085,-0.385C0.058,-0.418 0.045,-0.457 0.045,-0.504C0.045,-0.54 0.052,-0.572 0.067,-0.598C0.082,-0.624 0.101,-0.646 0.127,-0.663C0.152,-0.68 0.181,-0.692 0.214,-0.7C0.248,-0.708 0.283,-0.712 0.32,-0.712C0.356,-0.712 0.389,-0.71 0.417,-0.705C0.445,-0.701 0.471,-0.694 0.495,-0.685L0.495,-0.539C0.483,-0.547 0.47,-0.554 0.456,-0.561C0.442,-0.567 0.428,-0.572 0.414,-0.576C0.399,-0.58 0.384,-0.583 0.37,-0.585C0.355,-0.587 0.342,-0.588 0.329,-0.588C0.311,-0.588 0.294,-0.586 0.28,-0.583C0.265,-0.579 0.253,-0.575 0.243,-0.568C0.233,-0.562 0.225,-0.555 0.219,-0.546C0.214,-0.538 0.211,-0.528 0.211,-0.517C0.211,-0.505 0.214,-0.495 0.22,-0.486C0.226,-0.476 0.235,-0.468 0.247,-0.459C0.258,-0.451 0.272,-0.443 0.288,-0.435C0.304,-0.427 0.323,-0.419 0.343,-0.41C0.371,-0.398 0.396,-0.386 0.419,-0.373C0.441,-0.36 0.46,-0.345 0.476,-0.328C0.492,-0.312 0.504,-0.293 0.513,-0.271C0.521,-0.25 0.525,-0.225 0.525,-0.197C0.525,-0.158 0.518,-0.125 0.503,-0.098C0.488,-0.072 0.468,-0.05 0.443,-0.034C0.417,-0.017 0.388,-0.006 0.354,0.001C0.321,0.009 0.285,0.012 0.248,0.012C0.209,0.012 0.173,0.009 0.138,0.002C0.103,-0.004 0.073,-0.014 0.048,-0.027Z" style="fill:rgb(47,56,87);fill-rule:nonzero;"/>
                    </g>
                </g>
            </g>
        </g>
    </g>
</svg>
